<?xml version="1.0" encoding="UTF-8" standalone="no"?>
<!DOCTYPE svg PUBLIC "-//W3C//DTD SVG 1.1//EN"
 "http://www.w3.org/Graphics/SVG/1.1/DTD/svg11.dtd">
<!-- Generated by graphviz version 2.40.1 (20161225.0304)
 -->
<!-- Title: gocallvis Pages: 1 -->
<svg width="694pt" height="376pt"
 viewBox="0.00 0.00 694.23 376.00" xmlns="http://www.w3.org/2000/svg" xmlns:xlink="http://www.w3.org/1999/xlink">
<g id="graph0" class="graph" transform="scale(1 1) rotate(0) translate(0 376)">
<title>gocallvis</title>
<polygon fill="#d3d3d3" stroke="transparent" points="0,0 0,-376 694.2316,-376 694.2316,0 0,0"/>
<g id="clust1" class="cluster">
<title>cluster_focus</title>
<polygon fill="#e6ecfa" stroke="#000000" stroke-width=".5" points="8,-8 8,-368 686.2316,-368 686.2316,-8 8,-8"/>
<text text-anchor="middle" x="347.1158" y="-347.8" font-family="Arial" font-size="18.00" fill="#000000">streaming</text>
</g>
<g id="clust3" class="cluster">
<title>cluster_*github.com/go&#45;i2p/go&#45;streaming.StreamManager</title>
<g id="a_clust3"><a xlink:title="type: *github.com/go&#45;i2p/go&#45;streaming.StreamManager">
<path fill="#eed8ae" stroke="#000000" stroke-width=".5" d="M261.8584,-16C261.8584,-16 385.9538,-16 385.9538,-16 391.9538,-16 397.9538,-22 397.9538,-28 397.9538,-28 397.9538,-143 397.9538,-143 397.9538,-149 391.9538,-155 385.9538,-155 385.9538,-155 261.8584,-155 261.8584,-155 255.8584,-155 249.8584,-149 249.8584,-143 249.8584,-143 249.8584,-28 249.8584,-28 249.8584,-22 255.8584,-16 261.8584,-16"/>
<text text-anchor="middle" x="323.9061" y="-24.5" font-family="Arial" font-size="15.00" fill="#222222">(*StreamManager)</text>
</a>
</g>
</g>
<g id="clust2" class="cluster">
<title>cluster_*github.com/go&#45;i2p/go&#45;sam&#45;bridge/lib/streaming.Adapter</title>
<g id="a_clust2"><a xlink:title="type: *github.com/go&#45;i2p/go&#45;sam&#45;bridge/lib/streaming.Adapter">
<path fill="#b0c4de" stroke="#000000" stroke-width=".5" d="M28,-69C28,-69 152.0954,-69 152.0954,-69 158.0954,-69 164.0954,-75 164.0954,-81 164.0954,-81 164.0954,-318 164.0954,-318 164.0954,-324 158.0954,-330 152.0954,-330 152.0954,-330 28,-330 28,-330 22,-330 16,-324 16,-318 16,-318 16,-81 16,-81 16,-75 22,-69 28,-69"/>
<text text-anchor="middle" x="90.0477" y="-77.5" font-family="Arial" font-size="15.00" fill="#222222">(*Adapter)</text>
</a>
</g>
</g>
<!-- github.com/go&#45;i2p/go&#45;streaming.ListenWithManager -->
<g id="node1" class="node">
<title>github.com/go&#45;i2p/go&#45;streaming.ListenWithManager</title>
<g id="a_node1"><a xlink:title="github.com/go&#45;i2p/go&#45;streaming.ListenWithManager | defined in stream.go:950">
<path fill="#ffe4b5" stroke="#000000" stroke-width="1.5" d="M380.1442,-330C380.1442,-330 267.668,-330 267.668,-330 261.668,-330 255.668,-324 255.668,-318 255.668,-318 255.668,-306 255.668,-306 255.668,-300 261.668,-294 267.668,-294 267.668,-294 380.1442,-294 380.1442,-294 386.1442,-294 392.1442,-300 392.1442,-306 392.1442,-306 392.1442,-318 392.1442,-318 392.1442,-324 386.1442,-330 380.1442,-330"/>
<text text-anchor="middle" x="323.9061" y="-316.2" font-family="Verdana" font-size="14.00" fill="#000000">streaming</text>
<text text-anchor="middle" x="323.9061" y="-299.4" font-family="Verdana" font-size="14.00" fill="#000000">ListenWithManager</text>
</a>
</g>
</g>
<!-- github.com/go&#45;i2p/go&#45;sam&#45;bridge/lib/streaming.parseDestinationFromBase64 -->
<g id="node2" class="node">
<title>github.com/go&#45;i2p/go&#45;sam&#45;bridge/lib/streaming.parseDestinationFromBase64</title>
<g id="a_node2"><a xlink:title="github.com/go&#45;i2p/go&#45;sam&#45;bridge/lib/streaming.parseDestinationFromBase64 | defined in adapter.go:151&#10;at adapter.go:157: calling [github.com/go&#45;i2p/go&#45;i2cp.NewCrypto]&#10;at adapter.go:158: calling [github.com/go&#45;i2p/go&#45;i2cp.NewDestinationFromBase64]">
<path fill="#add8e6" stroke="#000000" stroke-width=".5" d="M406.5279,-208C406.5279,-208 241.2843,-208 241.2843,-208 235.2843,-208 229.2843,-202 229.2843,-196 229.2843,-196 229.2843,-184 229.2843,-184 229.2843,-178 235.2843,-172 241.2843,-172 241.2843,-172 406.5279,-172 406.5279,-172 412.5279,-172 418.5279,-178 418.5279,-184 418.5279,-184 418.5279,-196 418.5279,-196 418.5279,-202 412.5279,-208 406.5279,-208"/>
<text text-anchor="middle" x="323.9061" y="-185.8" font-family="Verdana" font-size="14.00" fill="#000000">parseDestinationFromBase64</text>
</a>
</g>
</g>
<!-- github.com/go&#45;i2p/go&#45;i2cp.NewCrypto -->
<g id="node3" class="node">
<title>github.com/go&#45;i2p/go&#45;i2cp.NewCrypto</title>
<g id="a_node3"><a xlink:title="github.com/go&#45;i2p/go&#45;i2cp.NewCrypto | defined in crypto.go:40">
<path fill="#ffe4b5" stroke="#000000" stroke-width="1.5" d="M617.7904,-182C617.7904,-182 552.158,-182 552.158,-182 546.158,-182 540.158,-176 540.158,-170 540.158,-170 540.158,-158 540.158,-158 540.158,-152 546.158,-146 552.158,-146 552.158,-146 617.7904,-146 617.7904,-146 623.7904,-146 629.7904,-152 629.7904,-158 629.7904,-158 629.7904,-170 629.7904,-170 629.7904,-176 623.7904,-182 617.7904,-182"/>
<text text-anchor="middle" x="584.9742" y="-168.2" font-family="Verdana" font-size="14.00" fill="#000000">go_i2cp</text>
<text text-anchor="middle" x="584.9742" y="-151.4" font-family="Verdana" font-size="14.00" fill="#000000">NewCrypto</text>
</a>
</g>
</g>
<!-- github.com/go&#45;i2p/go&#45;sam&#45;bridge/lib/streaming.parseDestinationFromBase64&#45;&gt;github.com/go&#45;i2p/go&#45;i2cp.NewCrypto -->
<g id="edge4" class="edge">
<title>github.com/go&#45;i2p/go&#45;sam&#45;bridge/lib/streaming.parseDestinationFromBase64&#45;&gt;github.com/go&#45;i2p/go&#45;i2cp.NewCrypto</title>
<g id="a_edge4"><a xlink:title="at adapter.go:157: calling [github.com/go&#45;i2p/go&#45;i2cp.NewCrypto]">
<path fill="none" stroke="#8b4513" d="M418.8962,-180.5399C456.2578,-176.819 497.8248,-172.6793 530.0275,-169.4722"/>
<polygon fill="#8b4513" stroke="#8b4513" points="530.5329,-172.9393 540.1368,-168.4654 529.8391,-165.9737 530.5329,-172.9393"/>
</a>
</g>
</g>
<!-- github.com/go&#45;i2p/go&#45;i2cp.NewDestinationFromBase64 -->
<g id="node4" class="node">
<title>github.com/go&#45;i2p/go&#45;i2cp.NewDestinationFromBase64</title>
<g id="a_node4"><a xlink:title="github.com/go&#45;i2p/go&#45;i2cp.NewDestinationFromBase64 | defined in destination.go:244">
<path fill="#ffe4b5" stroke="#000000" stroke-width="1.5" d="M665.9896,-243C665.9896,-243 503.9588,-243 503.9588,-243 497.9588,-243 491.9588,-237 491.9588,-231 491.9588,-231 491.9588,-219 491.9588,-219 491.9588,-213 497.9588,-207 503.9588,-207 503.9588,-207 665.9896,-207 665.9896,-207 671.9896,-207 677.9896,-213 677.9896,-219 677.9896,-219 677.9896,-231 677.9896,-231 677.9896,-237 671.9896,-243 665.9896,-243"/>
<text text-anchor="middle" x="584.9742" y="-229.2" font-family="Verdana" font-size="14.00" fill="#000000">go_i2cp</text>
<text text-anchor="middle" x="584.9742" y="-212.4" font-family="Verdana" font-size="14.00" fill="#000000">NewDestinationFromBase64</text>
</a>
</g>
</g>
<!-- github.com/go&#45;i2p/go&#45;sam&#45;bridge/lib/streaming.parseDestinationFromBase64&#45;&gt;github.com/go&#45;i2p/go&#45;i2cp.NewDestinationFromBase64 -->
<g id="edge5" class="edge">
<title>github.com/go&#45;i2p/go&#45;sam&#45;bridge/lib/streaming.parseDestinationFromBase64&#45;&gt;github.com/go&#45;i2p/go&#45;i2cp.NewDestinationFromBase64</title>
<g id="a_edge5"><a xlink:title="at adapter.go:158: calling [github.com/go&#45;i2p/go&#45;i2cp.NewDestinationFromBase64]">
<path fill="none" stroke="#8b4513" d="M418.8962,-202.7348C439.3185,-205.4727 460.9974,-208.3791 481.7165,-211.1568"/>
<polygon fill="#8b4513" stroke="#8b4513" points="481.4245,-214.6489 491.801,-212.5088 482.3547,-207.711 481.4245,-214.6489"/>
</a>
</g>
</g>
<!-- github.com/go&#45;i2p/go&#45;sam&#45;bridge/lib/streaming.NewAdapter -->
<g id="node5" class="node">
<title>github.com/go&#45;i2p/go&#45;sam&#45;bridge/lib/streaming.NewAdapter</title>
<g id="a_node5"><a xlink:title="github.com/go&#45;i2p/go&#45;sam&#45;bridge/lib/streaming.NewAdapter | defined in adapter.go:35&#10;at adapter.go:41: calling [(*github.com/go&#45;i2p/go&#45;streaming.StreamManager).Destination]">
<path fill="#add8e6" stroke="#000000" stroke-width="1.5" d="M125.5637,-61C125.5637,-61 54.5317,-61 54.5317,-61 48.5317,-61 42.5317,-55 42.5317,-49 42.5317,-49 42.5317,-37 42.5317,-37 42.5317,-31 48.5317,-25 54.5317,-25 54.5317,-25 125.5637,-25 125.5637,-25 131.5637,-25 137.5637,-31 137.5637,-37 137.5637,-37 137.5637,-49 137.5637,-49 137.5637,-55 131.5637,-61 125.5637,-61"/>
<text text-anchor="middle" x="90.0477" y="-38.8" font-family="Verdana" font-size="14.00" fill="#000000">NewAdapter</text>
</a>
</g>
</g>
<!-- (*github.com/go&#45;i2p/go&#45;streaming.StreamManager).Destination -->
<g id="node12" class="node">
<title>(*github.com/go&#45;i2p/go&#45;streaming.StreamManager).Destination</title>
<g id="a_node12"><a xlink:title="(*github.com/go&#45;i2p/go&#45;streaming.StreamManager).Destination | defined in manager.go:322">
<path fill="#ffe4b5" stroke="#000000" stroke-width="1.5" d="M355.9501,-86C355.9501,-86 291.8621,-86 291.8621,-86 285.8621,-86 279.8621,-80 279.8621,-74 279.8621,-74 279.8621,-62 279.8621,-62 279.8621,-56 285.8621,-50 291.8621,-50 291.8621,-50 355.9501,-50 355.9501,-50 361.9501,-50 367.9501,-56 367.9501,-62 367.9501,-62 367.9501,-74 367.9501,-74 367.9501,-80 361.9501,-86 355.9501,-86"/>
<text text-anchor="middle" x="323.9061" y="-72.2" font-family="Verdana" font-size="14.00" fill="#000000">streaming</text>
<text text-anchor="middle" x="323.9061" y="-55.4" font-family="Verdana" font-size="14.00" fill="#000000">Destination</text>
</a>
</g>
</g>
<!-- github.com/go&#45;i2p/go&#45;sam&#45;bridge/lib/streaming.NewAdapter&#45;&gt;(*github.com/go&#45;i2p/go&#45;streaming.StreamManager).Destination -->
<g id="edge7" class="edge">
<title>github.com/go&#45;i2p/go&#45;sam&#45;bridge/lib/streaming.NewAdapter&#45;&gt;(*github.com/go&#45;i2p/go&#45;streaming.StreamManager).Destination</title>
<g id="a_edge7"><a xlink:title="at adapter.go:41: calling [(*github.com/go&#45;i2p/go&#45;streaming.StreamManager).Destination]">
<path fill="none" stroke="#8b4513" d="M137.6543,-48.0893C175.8619,-52.1737 229.5247,-57.9104 269.4407,-62.1775"/>
<polygon fill="#8b4513" stroke="#8b4513" points="269.2175,-65.6735 279.5329,-63.2564 269.9616,-58.7132 269.2175,-65.6735"/>
</a>
</g>
</g>
<!-- github.com/go&#45;i2p/go&#45;streaming.DialWithManager -->
<g id="node6" class="node">
<title>github.com/go&#45;i2p/go&#45;streaming.DialWithManager</title>
<g id="a_node6"><a xlink:title="github.com/go&#45;i2p/go&#45;streaming.DialWithManager | defined in stream.go:377">
<path fill="#ffe4b5" stroke="#000000" stroke-width="1.5" d="M374.7534,-269C374.7534,-269 273.0588,-269 273.0588,-269 267.0588,-269 261.0588,-263 261.0588,-257 261.0588,-257 261.0588,-245 261.0588,-245 261.0588,-239 267.0588,-233 273.0588,-233 273.0588,-233 374.7534,-233 374.7534,-233 380.7534,-233 386.7534,-239 386.7534,-245 386.7534,-245 386.7534,-257 386.7534,-257 386.7534,-263 380.7534,-269 374.7534,-269"/>
<text text-anchor="middle" x="323.9061" y="-255.2" font-family="Verdana" font-size="14.00" fill="#000000">streaming</text>
<text text-anchor="middle" x="323.9061" y="-238.4" font-family="Verdana" font-size="14.00" fill="#000000">DialWithManager</text>
</a>
</g>
</g>
<!-- (*github.com/go&#45;i2p/go&#45;sam&#45;bridge/lib/streaming.Adapter).Listen -->
<g id="node7" class="node">
<title>(*github.com/go&#45;i2p/go&#45;sam&#45;bridge/lib/streaming.Adapter).Listen</title>
<g id="a_node7"><a xlink:title="(*github.com/go&#45;i2p/go&#45;sam&#45;bridge/lib/streaming.Adapter).Listen | defined in adapter.go:110&#10;at adapter.go:115: calling [github.com/go&#45;i2p/go&#45;streaming.ListenWithManager]">
<path fill="#add8e6" stroke="#000000" stroke-width="1.5" d="M107.5407,-322C107.5407,-322 72.5547,-322 72.5547,-322 66.5547,-322 60.5547,-316 60.5547,-310 60.5547,-310 60.5547,-298 60.5547,-298 60.5547,-292 66.5547,-286 72.5547,-286 72.5547,-286 107.5407,-286 107.5407,-286 113.5407,-286 119.5407,-292 119.5407,-298 119.5407,-298 119.5407,-310 119.5407,-310 119.5407,-316 113.5407,-322 107.5407,-322"/>
<text text-anchor="middle" x="90.0477" y="-299.8" font-family="Verdana" font-size="14.00" fill="#000000">Listen</text>
</a>
</g>
</g>
<!-- (*github.com/go&#45;i2p/go&#45;sam&#45;bridge/lib/streaming.Adapter).Listen&#45;&gt;github.com/go&#45;i2p/go&#45;streaming.ListenWithManager -->
<g id="edge3" class="edge">
<title>(*github.com/go&#45;i2p/go&#45;sam&#45;bridge/lib/streaming.Adapter).Listen&#45;&gt;github.com/go&#45;i2p/go&#45;streaming.ListenWithManager</title>
<g id="a_edge3"><a xlink:title="at adapter.go:115: calling [github.com/go&#45;i2p/go&#45;streaming.ListenWithManager]">
<path fill="none" stroke="#8b4513" d="M119.666,-305.0132C151.0705,-306.0875 201.9969,-307.8296 245.1388,-309.3055"/>
<polygon fill="#8b4513" stroke="#8b4513" points="245.2367,-312.8108 255.3505,-309.6548 245.4761,-305.8149 245.2367,-312.8108"/>
</a>
</g>
</g>
<!-- (*github.com/go&#45;i2p/go&#45;sam&#45;bridge/lib/streaming.Adapter).LookupDestination -->
<g id="node8" class="node">
<title>(*github.com/go&#45;i2p/go&#45;sam&#45;bridge/lib/streaming.Adapter).LookupDestination</title>
<g id="a_node8"><a xlink:title="(*github.com/go&#45;i2p/go&#45;sam&#45;bridge/lib/streaming.Adapter).LookupDestination | defined in adapter.go:54&#10;at adapter.go:59: calling [(*github.com/go&#45;i2p/go&#45;streaming.StreamManager).LookupDestination]">
<path fill="#add8e6" stroke="#000000" stroke-width="1.5" d="M144.1431,-139C144.1431,-139 35.9523,-139 35.9523,-139 29.9523,-139 23.9523,-133 23.9523,-127 23.9523,-127 23.9523,-115 23.9523,-115 23.9523,-109 29.9523,-103 35.9523,-103 35.9523,-103 144.1431,-103 144.1431,-103 150.1431,-103 156.1431,-109 156.1431,-115 156.1431,-115 156.1431,-127 156.1431,-127 156.1431,-133 150.1431,-139 144.1431,-139"/>
<text text-anchor="middle" x="90.0477" y="-116.8" font-family="Verdana" font-size="14.00" fill="#000000">LookupDestination</text>
</a>
</g>
</g>
<!-- (*github.com/go&#45;i2p/go&#45;streaming.StreamManager).LookupDestination -->
<g id="node11" class="node">
<title>(*github.com/go&#45;i2p/go&#45;streaming.StreamManager).LookupDestination</title>
<g id="a_node11"><a xlink:title="(*github.com/go&#45;i2p/go&#45;streaming.StreamManager).LookupDestination | defined in manager.go:341">
<path fill="#ffe4b5" stroke="#000000" stroke-width="1.5" d="M378.0015,-147C378.0015,-147 269.8107,-147 269.8107,-147 263.8107,-147 257.8107,-141 257.8107,-135 257.8107,-135 257.8107,-123 257.8107,-123 257.8107,-117 263.8107,-111 269.8107,-111 269.8107,-111 378.0015,-111 378.0015,-111 384.0015,-111 390.0015,-117 390.0015,-123 390.0015,-123 390.0015,-135 390.0015,-135 390.0015,-141 384.0015,-147 378.0015,-147"/>
<text text-anchor="middle" x="323.9061" y="-133.2" font-family="Verdana" font-size="14.00" fill="#000000">streaming</text>
<text text-anchor="middle" x="323.9061" y="-116.4" font-family="Verdana" font-size="14.00" fill="#000000">LookupDestination</text>
</a>
</g>
</g>
<!-- (*github.com/go&#45;i2p/go&#45;sam&#45;bridge/lib/streaming.Adapter).LookupDestination&#45;&gt;(*github.com/go&#45;i2p/go&#45;streaming.StreamManager).LookupDestination -->
<g id="edge6" class="edge">
<title>(*github.com/go&#45;i2p/go&#45;sam&#45;bridge/lib/streaming.Adapter).LookupDestination&#45;&gt;(*github.com/go&#45;i2p/go&#45;streaming.StreamManager).LookupDestination</title>
<g id="a_edge6"><a xlink:title="at adapter.go:59: calling [(*github.com/go&#45;i2p/go&#45;streaming.StreamManager).LookupDestination]">
<path fill="none" stroke="#8b4513" d="M156.1244,-123.2604C184.5176,-124.2317 217.8791,-125.3729 247.3428,-126.3809"/>
<polygon fill="#8b4513" stroke="#8b4513" points="247.4735,-129.8873 257.5874,-126.7313 247.7129,-122.8914 247.4735,-129.8873"/>
</a>
</g>
</g>
<!-- (*github.com/go&#45;i2p/go&#45;sam&#45;bridge/lib/streaming.Adapter).Dial -->
<g id="node9" class="node">
<title>(*github.com/go&#45;i2p/go&#45;sam&#45;bridge/lib/streaming.Adapter).Dial</title>
<g id="a_node9"><a xlink:title="(*github.com/go&#45;i2p/go&#45;sam&#45;bridge/lib/streaming.Adapter).Dial | defined in adapter.go:75&#10;at adapter.go:87: calling [github.com/go&#45;i2p/go&#45;sam&#45;bridge/lib/streaming.parseDestinationFromBase64]&#10;at adapter.go:98: calling [github.com/go&#45;i2p/go&#45;streaming.DialWithManager]">
<path fill="#add8e6" stroke="#000000" stroke-width="1.5" d="M105.0477,-261C105.0477,-261 75.0477,-261 75.0477,-261 69.0477,-261 63.0477,-255 63.0477,-249 63.0477,-249 63.0477,-237 63.0477,-237 63.0477,-231 69.0477,-225 75.0477,-225 75.0477,-225 105.0477,-225 105.0477,-225 111.0477,-225 117.0477,-231 117.0477,-237 117.0477,-237 117.0477,-249 117.0477,-249 117.0477,-255 111.0477,-261 105.0477,-261"/>
<text text-anchor="middle" x="90.0477" y="-238.8" font-family="Verdana" font-size="14.00" fill="#000000">Dial</text>
</a>
</g>
</g>
<!-- (*github.com/go&#45;i2p/go&#45;sam&#45;bridge/lib/streaming.Adapter).Dial&#45;&gt;github.com/go&#45;i2p/go&#45;sam&#45;bridge/lib/streaming.parseDestinationFromBase64 -->
<g id="edge1" class="edge">
<title>(*github.com/go&#45;i2p/go&#45;sam&#45;bridge/lib/streaming.Adapter).Dial&#45;&gt;github.com/go&#45;i2p/go&#45;sam&#45;bridge/lib/streaming.parseDestinationFromBase64</title>
<g id="a_edge1"><a xlink:title="at adapter.go:87: calling [github.com/go&#45;i2p/go&#45;sam&#45;bridge/lib/streaming.parseDestinationFromBase64]">
<path fill="none" stroke="#000000" d="M117.3319,-236.8165C145.9988,-230.3196 192.6315,-219.7511 234.342,-210.2982"/>
<polygon fill="#000000" stroke="#000000" points="235.2879,-213.6726 244.267,-208.0488 233.7407,-206.8458 235.2879,-213.6726"/>
</a>
</g>
</g>
<!-- (*github.com/go&#45;i2p/go&#45;sam&#45;bridge/lib/streaming.Adapter).Dial&#45;&gt;github.com/go&#45;i2p/go&#45;streaming.DialWithManager -->
<g id="edge8" class="edge">
<title>(*github.com/go&#45;i2p/go&#45;sam&#45;bridge/lib/streaming.Adapter).Dial&#45;&gt;github.com/go&#45;i2p/go&#45;streaming.DialWithManager</title>
<g id="a_edge8"><a xlink:title="at adapter.go:98: calling [github.com/go&#45;i2p/go&#45;streaming.DialWithManager]">
<path fill="none" stroke="#8b4513" d="M117.3319,-243.9334C149.8163,-245.0446 205.3698,-246.945 250.6894,-248.4953"/>
<polygon fill="#8b4513" stroke="#8b4513" points="250.6681,-251.9966 260.782,-248.8406 250.9075,-245.0007 250.6681,-251.9966"/>
</a>
</g>
</g>
<!-- (*github.com/go&#45;i2p/go&#45;sam&#45;bridge/lib/streaming.Adapter).Destination -->
<g id="node10" class="node">
<title>(*github.com/go&#45;i2p/go&#45;sam&#45;bridge/lib/streaming.Adapter).Destination</title>
<g id="a_node10"><a xlink:title="(*github.com/go&#45;i2p/go&#45;sam&#45;bridge/lib/streaming.Adapter).Destination | defined in adapter.go:125&#10;at adapter.go:129: calling [(*github.com/go&#45;i2p/go&#45;streaming.StreamManager).Destination]">
<path fill="#add8e6" stroke="#000000" stroke-width="1.5" d="M122.0917,-200C122.0917,-200 58.0037,-200 58.0037,-200 52.0037,-200 46.0037,-194 46.0037,-188 46.0037,-188 46.0037,-176 46.0037,-176 46.0037,-170 52.0037,-164 58.0037,-164 58.0037,-164 122.0917,-164 122.0917,-164 128.0917,-164 134.0917,-170 134.0917,-176 134.0917,-176 134.0917,-188 134.0917,-188 134.0917,-194 128.0917,-200 122.0917,-200"/>
<text text-anchor="middle" x="90.0477" y="-177.8" font-family="Verdana" font-size="14.00" fill="#000000">Destination</text>
</a>
</g>
</g>
<!-- (*github.com/go&#45;i2p/go&#45;sam&#45;bridge/lib/streaming.Adapter).Destination&#45;&gt;(*github.com/go&#45;i2p/go&#45;streaming.StreamManager).Destination -->
<g id="edge2" class="edge">
<title>(*github.com/go&#45;i2p/go&#45;sam&#45;bridge/lib/streaming.Adapter).Destination&#45;&gt;(*github.com/go&#45;i2p/go&#45;streaming.StreamManager).Destination</title>
<g id="a_edge2"><a xlink:title="at adapter.go:129: calling [(*github.com/go&#45;i2p/go&#45;streaming.StreamManager).Destination]">
<path fill="none" stroke="#8b4513" d="M134.1694,-182.6394C153.7582,-180.9382 176.1588,-176.0649 193.0954,-164 219.9925,-144.8398 203.6366,-120.0338 229.0954,-99 240.7021,-89.4107 255.3599,-82.7592 269.6578,-78.1562"/>
<polygon fill="#8b4513" stroke="#8b4513" points="270.8441,-81.4558 279.457,-75.2858 268.8763,-74.7381 270.8441,-81.4558"/>
</a>
</g>
</g>
</g>
</svg>
